<svg width="33" height="34" viewBox="0 0 33 34" fill="none" xmlns="http://www.w3.org/2000/svg">
<ellipse cx="16.1208" cy="16.6196" rx="16.0524" ry="16.464" fill="#86C649"/>
<path d="M21.469 20.7078L20.7034 12.746C20.687 12.5692 20.5257 12.4354 20.337 12.4354H18.7621C18.7402 11.1071 17.5645 10.0339 16.1209 10.0339C14.6772 10.0339 13.5015 11.1071 13.4797 12.4354H11.9048C11.7134 12.4354 11.5548 12.5692 11.5384 12.746L10.7728 20.7078C10.7728 20.7179 10.7701 20.728 10.7701 20.7381C10.7701 21.6446 11.6696 22.382 12.777 22.382H19.4648C20.5722 22.382 21.4717 21.6446 21.4717 20.7381C21.4717 20.728 21.4717 20.7179 21.469 20.7078ZM16.1209 10.7157C17.1572 10.7157 18.002 11.4834 18.0239 12.4354H14.2179C14.2398 11.4834 15.0846 10.7157 16.1209 10.7157ZM19.4648 21.7002H12.777C12.0825 21.7002 11.5192 21.2759 11.5083 20.7532L12.2411 13.1197H13.4769V14.155C13.4769 14.3444 13.641 14.4959 13.846 14.4959C14.0511 14.4959 14.2152 14.3444 14.2152 14.155V13.1197H18.0239V14.155C18.0239 14.3444 18.1879 14.4959 18.393 14.4959C18.5981 14.4959 18.7621 14.3444 18.7621 14.155V13.1197H19.998L20.7335 20.7532C20.7225 21.2759 20.1566 21.7002 19.4648 21.7002Z" fill="white"/>
</svg>
